<svg width="60" height="60" viewBox="0 0 60 60" fill="none" xmlns="http://www.w3.org/2000/svg">
<path d="M25.0003 40.0005H28.7503M36.2503 40.0005H45.0002M5.00024 22.5005H55.0003M5.00024 30.0005C5.00024 21.158 5.00024 16.7355 7.63275 13.783C8.0544 13.3096 8.5161 12.8746 9.01778 12.478C12.1553 10.0005 16.8527 10.0005 26.2502 10.0005H33.7502C43.1477 10.0005 47.8453 10.0005 50.9803 12.4755C51.4836 12.8755 51.9461 13.3113 52.3678 13.783C55.0003 16.733 55.0003 21.158 55.0003 30.0005C55.0003 38.8429 55.0003 43.2655 52.3678 46.218C51.9439 46.6923 51.4796 47.1289 50.9803 47.523C47.8453 50.0005 43.1503 50.0005 33.7502 50.0005H26.2502C16.8527 50.0005 12.1553 50.0005 9.01778 47.5255C8.51918 47.1305 8.05575 46.693 7.63275 46.218C5.00024 43.2679 5.00024 38.8429 5.00024 30.0005Z" stroke="#393939" stroke-width="5" stroke-linecap="round" stroke-linejoin="round"/>
</svg>
