<svg width="60" height="60" viewBox="0 0 60 60" fill="none" xmlns="http://www.w3.org/2000/svg">
<path d="M30 17.499V34.9991M30 34.9991L37.5 27.4991M30 34.9991L22.5 27.4991" stroke="#393939" stroke-width="5" stroke-linecap="round" stroke-linejoin="round"/>
<path d="M40.0003 42.4995H20.0003M55.0003 29.9995C55.0003 41.7845 55.0003 47.677 51.3377 51.337C47.6803 54.9995 41.7853 54.9995 30.0002 54.9995C18.2153 54.9995 12.3227 54.9995 8.66025 51.337C5.00024 47.6795 5.00024 41.7845 5.00024 29.9995C5.00024 18.2145 5.00024 12.322 8.66025 8.6595C12.3253 4.99951 18.2153 4.99951 30.0002 4.99951C41.7853 4.99951 47.6777 4.99951 51.3377 8.6595C53.7728 11.0945 54.5878 14.517 54.8627 19.9995" stroke="#393939" stroke-width="5" stroke-linecap="round"/>
</svg>
