<svg width="60" height="60" viewBox="0 0 60 60" fill="none" xmlns="http://www.w3.org/2000/svg">
<g clip-path="url(#clip0_55_183)">
<mask id="mask0_55_183" style="mask-type:luminance" maskUnits="userSpaceOnUse" x="0" y="0" width="60" height="60">
<path d="M60 0H0V60H60V0Z" fill="white"/>
</mask>
<g mask="url(#mask0_55_183)">
<path d="M34.9997 20.0005H11.6664C11.2244 20.0005 10.8005 19.8249 10.4879 19.5123C10.1753 19.1998 9.99976 18.7759 9.99976 18.3338V11.6671C9.99976 11.2251 10.1753 10.8012 10.4879 10.4887C10.8005 10.1761 11.2244 10.0005 11.6664 10.0005H34.9997C35.4418 10.0005 35.8657 10.1761 36.1783 10.4887C36.4908 10.8012 36.6665 11.2251 36.6665 11.6671V18.3338C36.6665 18.7759 36.4908 19.1998 36.1783 19.5123C35.8657 19.8249 35.4418 20.0005 34.9997 20.0005ZM13.3331 16.6672H33.3331V13.2338H13.3331V16.6672Z" fill="#393939"/>
<path d="M34.9997 23.4668H11.6664C11.2244 23.4668 10.8005 23.6424 10.4879 23.9549C10.1753 24.2675 9.99976 24.6914 9.99976 25.1334V31.6668C9.99976 32.1088 10.1753 32.5327 10.4879 32.8452C10.8005 33.1578 11.2244 33.3334 11.6664 33.3334H30.5998L36.6665 27.1668V25.1334C36.6665 24.6914 36.4908 24.2675 36.1783 23.9549C35.8657 23.6424 35.4418 23.4668 34.9997 23.4668ZM33.3331 30.0001H13.3331V26.6667H33.3331V30.0001Z" fill="#393939"/>
<path d="M18.4333 52.5173V52.4174L18.9666 50.1007H6.66658V6.66732H39.9999V23.7506L43.3333 20.6006V5.00065C43.3333 4.55862 43.1576 4.1347 42.8451 3.82214C42.5326 3.50958 42.1086 3.33398 41.6665 3.33398H4.99992C4.55789 3.33398 4.13397 3.50958 3.8214 3.82214C3.50884 4.1347 3.33325 4.55862 3.33325 5.00065V51.6674C3.33325 52.1093 3.50884 52.5333 3.8214 52.8458C4.13397 53.1584 4.55789 53.334 4.99992 53.334H18.3332C18.3467 53.0597 18.3802 52.7867 18.4333 52.5173Z" fill="#393939"/>
<path d="M36.6664 31.9497L35.3665 33.2664C35.689 33.1999 35.9845 33.0394 36.2159 32.805C36.4473 32.5707 36.604 32.273 36.6664 31.9497Z" fill="#393939"/>
<path d="M9.99976 44.8999C9.99976 45.3418 10.1753 45.7657 10.4879 46.0783C10.8005 46.3909 11.2244 46.5665 11.6664 46.5665H19.7331L20.2331 44.3998L20.4497 43.4832V43.3999H13.3331V39.9998H23.8997L27.2331 36.6665H11.6664C11.2244 36.6665 10.8005 36.8421 10.4879 37.1546C10.1753 37.4672 9.99976 37.8911 9.99976 38.3332V44.8999Z" fill="#393939"/>
<path d="M55.8164 27.7832L50.1998 22.1665C49.9505 21.9165 49.6544 21.7182 49.3283 21.5829C49.0022 21.4476 48.6527 21.3779 48.2997 21.3779C47.9468 21.3779 47.5972 21.4476 47.2712 21.5829C46.9451 21.7182 46.649 21.9165 46.3997 22.1665L23.5497 45.1498L21.6664 53.1665C21.5959 53.5123 21.5943 53.8687 21.6617 54.2152C21.7292 54.5616 21.8643 54.8914 22.0594 55.1855C22.2545 55.4797 22.5056 55.7324 22.7986 55.9294C23.0915 56.1263 23.4203 56.2635 23.7664 56.3331C23.9382 56.3498 24.1112 56.3498 24.2831 56.3331C24.4874 56.365 24.6954 56.365 24.8997 56.3331L32.9831 54.5498L55.8164 31.6664C56.0658 31.4186 56.2638 31.1239 56.3989 30.7993C56.534 30.4746 56.6035 30.1265 56.6035 29.7748C56.6035 29.4232 56.534 29.075 56.3989 28.7504C56.2638 28.4257 56.0658 28.131 55.8164 27.8831V27.7832ZM31.283 51.5165L25.1831 52.8665L26.6664 46.8164L43.7997 29.4998L48.4997 34.1998L31.283 51.5165ZM50.3831 32.3165L45.683 27.6164L48.3331 24.9998L53.0664 29.7332L50.3831 32.3165Z" fill="#393939"/>
</g>
</g>
<defs>
<clipPath id="clip0_55_183">
<rect width="60" height="60" fill="white"/>
</clipPath>
</defs>
</svg>
